<svg width="244" height="84" viewBox="0 0 244 84" fill="none" xmlns="http://www.w3.org/2000/svg">
	<g clip-path="url(#clip0_548_207)">
		<path fill-rule="evenodd" clip-rule="evenodd"
			d="M123.571 45.4286L120 41.5L115 47H122H125H129L125.5 43.5L123.571 45.4286Z" fill="#BBBBBB" />
		<circle cx="123.5" cy="40" r="1.5" fill="#BBBBBB" />
		<rect x="114" y="36" width="16" height="12" rx="1" stroke="#BBBBBB" stroke-width="2" />
		<path
			d="M242.316 2.94868C242.84 2.77404 243.123 2.20772 242.949 1.68377C242.774 1.15983 242.208 0.876669 241.684 1.05132L242.316 2.94868ZM169.127 25.2368C168.604 25.4114 168.32 25.9777 168.495 26.5017C168.67 27.0256 169.236 27.3088 169.76 27.1341L169.127 25.2368ZM74.8725 58.7632C75.3965 58.5886 75.6796 58.0223 75.505 57.4983C75.3303 56.9744 74.764 56.6912 74.2401 56.8659L74.8725 58.7632ZM1.68377 81.0513C1.15983 81.226 0.876669 81.7923 1.05132 82.3162C1.22596 82.8402 1.79228 83.1233 2.31623 82.9487L1.68377 81.0513ZM2.31623 1.05132C1.79228 0.876669 1.22596 1.15983 1.05132 1.68377C0.876669 2.20772 1.15983 2.77404 1.68377 2.94868L2.31623 1.05132ZM74.2401 27.1341C74.764 27.3088 75.3303 27.0256 75.505 26.5017C75.6796 25.9777 75.3965 25.4114 74.8725 25.2368L74.2401 27.1341ZM169.76 56.8659C169.236 56.6912 168.67 56.9744 168.495 57.4983C168.32 58.0223 168.604 58.5886 169.127 58.7632L169.76 56.8659ZM241.684 82.9487C242.208 83.1233 242.774 82.8402 242.949 82.3162C243.123 81.7923 242.84 81.226 242.316 81.0513L241.684 82.9487ZM241.684 1.05132L169.127 25.2368L169.76 27.1341L242.316 2.94868L241.684 1.05132ZM74.2401 56.8659L1.68377 81.0513L2.31623 82.9487L74.8725 58.7632L74.2401 56.8659ZM1.68377 2.94868L74.2401 27.1341L74.8725 25.2368L2.31623 1.05132L1.68377 2.94868ZM169.127 58.7632L241.684 82.9487L242.316 81.0513L169.76 56.8659L169.127 58.7632Z"
			fill="#BBBBBB" />
	</g>
	<rect x="1" y="1" width="242" height="82" stroke="#BBBBBB" stroke-width="2" stroke-linejoin="round" />
	<defs>
		<clipPath id="clip0_548_207">
			<rect x="2" y="2" width="240" height="80" fill="white" />
		</clipPath>
	</defs>
</svg>
