<svg width="1063" height="351" viewBox="0 0 1063 351" fill="none" xmlns="http://www.w3.org/2000/svg">
  <path
    d="M806.516 171.45C808.973 173.9 813.048 177.721 816.654 179.561C916.87 139.346 1002.79 94.9535 1041.36 17.7719C936.306 26.602 880.561 75.9196 800.789 147.921C799.753 153.565 799.954 158.551 801.302 162.921"
    stroke="white" stroke-width="3" stroke-miterlimit="1.5" stroke-linecap="round" stroke-linejoin="round" />
  <path fill-rule="evenodd" clip-rule="evenodd"
    d="M886.892 114.048L768.498 184.795C768.14 189.129 769.642 192.289 773.044 194.258L886.892 114.048Z" stroke="white"
    stroke-width="3" stroke-miterlimit="1.5" stroke-linecap="round" stroke-linejoin="round" />
  <path fill-rule="evenodd" clip-rule="evenodd"
    d="M829.392 53.0326C817.489 71.4996 807.258 88.424 800.215 102.388C814.349 107.537 830.719 107.668 850.211 103.933L804.684 143.311C797.941 131.489 782.852 128.537 756.852 132.963C772.56 107.546 798.503 80.6473 829.392 53.0326Z"
    stroke="white" stroke-width="3" stroke-miterlimit="1.5" stroke-linecap="round" stroke-linejoin="round" />
  <path fill-rule="evenodd" clip-rule="evenodd"
    d="M902.293 201.919C882.039 204.015 863.821 205.282 849.5 204.979C852.719 188.733 861.161 172.127 873.938 155.228L819.884 178.484C825.552 190.993 820.561 208.438 803.946 231.261C831.481 229.027 865.355 217.676 902.293 201.919Z"
    stroke="white" stroke-width="3" stroke-miterlimit="1.5" stroke-linecap="round" stroke-linejoin="round" />
  <path
    d="M969.299 58.4816C975.745 55.7496 980.084 50.4141 978.993 46.5645C977.901 42.715 971.791 41.809 965.346 44.5411C958.901 47.2732 954.561 52.6087 955.652 56.4583C956.744 60.3079 962.854 61.2137 969.299 58.4816Z"
    stroke="white" stroke-width="3" stroke-miterlimit="1.5" stroke-linecap="round" stroke-linejoin="round" />
  <path d="M799.146 153.022L792.62 153.442C791.451 158.93 791.901 164.109 794.013 169.324" stroke="white"
    stroke-width="3" stroke-miterlimit="1.5" stroke-linecap="round" stroke-linejoin="round" />
  <path d="M798.238 176.967C801.169 180.606 805.026 183.305 809.579 184.331L813.67 178.136" stroke="white"
    stroke-width="3" stroke-miterlimit="1.5" stroke-linecap="round" stroke-linejoin="round" />
  <path fill-rule="evenodd" clip-rule="evenodd"
    d="M232.02 386.756C218.691 399.605 198.194 407.793 176.681 407.236C142.78 406.357 127.487 389.089 130.584 362.389C133.12 340.541 144.316 298.135 195.93 304.462C189.259 297.073 218.834 225.71 287.145 263.592C301.849 218.686 380.185 232.84 369.175 280.173C377.835 271.756 389.604 266.548 401.662 266.86C422.004 267.388 435.911 283.432 433.984 303.305C443.807 298.339 454.694 295.627 465.741 295.913C498.827 296.771 520.899 324.204 514.994 357.137C509.089 390.069 477.429 416.113 444.343 415.255C424.678 414.746 408.904 404.848 400.582 389.988C382.006 400.026 357.026 405.962 330.622 405.278C304.574 404.603 282.197 397.617 267.367 386.956C261.113 388.745 254.613 389.634 248.059 389.464C242.354 389.316 236.981 388.377 232.02 386.756Z"
    stroke="white" stroke-width="3" stroke-miterlimit="1.5" stroke-linecap="round" stroke-linejoin="round" />
  <path
    d="M806.721 183.46L801.801 196.297L798.98 188.023L791.987 206.646L789.053 194.251L775.928 219.033L773.943 202.958L762.485 211.461L765.333 198.126C640.109 283.994 501.622 271.038 427.413 331.955C459.868 333.404 481.368 360.584 475.531 393.139C469.627 426.07 437.966 452.114 404.88 451.257C385.216 450.747 369.442 440.85 361.119 425.99C342.543 436.028 317.563 441.964 291.16 441.28C265.112 440.605 242.734 433.619 227.904 422.958C221.65 424.747 215.15 425.635 208.597 425.465C202.892 425.318 197.519 424.379 192.557 422.758C179.228 435.606 158.731 443.795 137.218 443.238C103.318 442.359 79.6588 420.083 84.4216 393.52C89.1839 366.959 120.575 346.107 154.476 346.986C157.984 347.077 161.382 347.397 164.648 347.927C176.291 323.192 202.646 305.531 229.974 306.239C237.937 306.446 245.262 308.193 251.709 311.186C265.465 268.594 338.223 251.938 352.222 298.949C487.759 232.377 616.512 284.236 761.802 190.584L741.514 190.584L753.615 184.117L732.984 182.312L765.333 172.912L759.219 166.424L776.978 164.082L774.429 156.904L791.99 160.08"
    stroke="white" stroke-width="3" stroke-miterlimit="1.5" stroke-linecap="round" stroke-linejoin="round" />
  <path fill-rule="evenodd" clip-rule="evenodd"
    d="M524.697 323.152C537.271 314.907 553.173 309.655 567.148 310.017C589.168 310.588 598.106 324.891 587.091 341.941C576.078 358.988 549.257 372.366 527.236 371.795C524.958 371.736 522.819 371.53 520.83 371.189C505.836 387.063 483.272 398.394 465.521 397.934C460.349 397.8 456.053 396.677 452.704 394.754C443.011 406.896 426.268 415.989 413.375 415.655C399.819 415.304 395.392 404.661 402.917 391.537C394.727 396.938 385.446 400.278 377.613 400.075C364.4 399.733 360.022 389.432 367.187 376.676C359.257 379.862 351.296 381.6 344.121 381.414C322.629 380.858 316.265 363.244 329.921 342.107C343.576 320.97 372.115 304.26 393.606 304.817C406.38 305.148 413.809 311.504 414.869 321.044C430.057 314.604 448.237 310.799 465.388 311.244C482.308 311.682 494.942 316.17 501.525 323.016C506.166 321.869 510.702 321.3 514.959 321.411C518.665 321.507 521.917 322.11 524.697 323.152Z"
    stroke="white" stroke-width="3" stroke-miterlimit="1.5" stroke-linecap="round" stroke-linejoin="round" />
  <path fill-rule="evenodd" clip-rule="evenodd"
    d="M169.838 407.401C162.318 420.4 145.659 428.688 124.146 428.131C90.2454 427.253 57.0497 404.729 50.0643 377.862C43.0794 350.997 64.9334 329.898 98.834 330.776C102.342 330.867 105.842 331.189 109.304 331.725C109.925 306.705 128.205 288.834 155.533 289.542C163.496 289.748 171.506 291.513 179.198 294.539C177.003 275.403 189.62 261.063 209.47 261.578C230.339 262.118 240.198 269.559 247.008 290.24C274.212 255.606 352.151 274.255 332.761 322.938C340.286 317.912 349.855 315.166 360.901 315.452C393.988 316.309 427.885 344.049 436.545 377.359C445.206 410.668 425.372 437.019 392.286 436.162C372.621 435.652 352.67 425.646 337.9 410.619C323.955 420.777 301.873 426.789 275.47 426.104C249.422 425.43 224.224 418.371 204.87 407.593C199.475 409.404 193.44 410.305 186.887 410.135C181.182 409.987 175.457 409.039 169.838 407.401Z"
    stroke="white" stroke-width="3" stroke-miterlimit="1.5" stroke-linecap="round" stroke-linejoin="round" />
  <path fill-rule="evenodd" clip-rule="evenodd"
    d="M428.907 234.695C424.018 239.007 416.078 241.729 407.366 241.503C393.531 241.144 382.958 233.486 383.769 224.412C384.58 215.338 396.471 208.262 410.305 208.62C410.582 208.628 410.854 208.638 411.126 208.65C413.386 204.821 418.669 202.179 424.574 202.332C430.484 202.485 435.278 205.396 436.839 209.332C437.11 209.323 437.379 209.322 437.656 209.329C445.168 209.524 450.723 215.767 450.053 223.263C449.383 230.758 442.74 236.686 435.228 236.491C432.887 236.431 430.738 235.784 428.907 234.695Z"
    stroke="white" stroke-width="3" stroke-miterlimit="1.5" stroke-linecap="round" stroke-linejoin="round" />
  <path fill-rule="evenodd" clip-rule="evenodd"
    d="M616.212 300.731C616.06 301.236 615.789 301.727 615.391 302.196C612.512 305.588 604.081 306.511 596.575 304.256C589.071 302.001 585.314 297.417 588.193 294.025C590.714 291.055 597.491 289.978 604.177 291.269C604.179 291.069 604.19 290.867 604.208 290.664C604.689 285.282 610.505 281.052 617.185 281.225C623.867 281.399 628.902 285.909 628.421 291.292C628.281 292.859 627.687 294.329 626.753 295.621C627.707 295.486 628.713 295.427 629.749 295.453C635.206 295.595 639.425 298.087 639.163 301.015C638.902 303.943 634.257 306.205 628.801 306.064C623.342 305.922 619.123 303.43 619.384 300.502C619.39 300.438 619.398 300.373 619.409 300.309C618.386 300.559 617.313 300.704 616.212 300.731Z"
    stroke="white" stroke-width="3" stroke-miterlimit="1.5" stroke-linecap="round" stroke-linejoin="round" />
  <path fill-rule="evenodd" clip-rule="evenodd"
    d="M517.272 232.298C517.261 232.298 517.249 232.298 517.238 232.297C504.165 231.958 494.113 225.39 494.806 217.639C495.499 209.888 506.676 203.87 519.749 204.209C523.31 204.301 526.644 204.855 529.6 205.769C529.499 205.326 529.467 204.872 529.509 204.411C529.898 200.055 536.654 196.686 544.586 196.892C552.515 197.097 558.639 200.8 558.25 205.155C558.248 205.172 558.247 205.189 558.245 205.207C558.309 205.208 558.374 205.21 558.442 205.211C564.674 205.373 570.367 206.459 574.952 208.173C575.711 202.368 582.215 197.867 589.674 198.06C597.288 198.257 603.036 203.269 602.502 209.246C601.968 215.222 595.352 219.914 587.737 219.717C587.203 219.703 586.675 219.665 586.16 219.605C586.158 219.628 586.156 219.652 586.154 219.676C585.733 224.382 580.346 228.409 572.492 230.682C572.711 231.462 572.791 232.261 572.718 233.074C572.058 240.461 559.104 246.136 543.811 245.74C528.973 245.355 517.351 239.398 517.272 232.298Z"
    stroke="white" stroke-width="3" stroke-miterlimit="1.5" stroke-linecap="round" stroke-linejoin="round" />
</svg>
